<?xml version="1.0" encoding="UTF-8" standalone="no"?>
<svg
   width="101px"
   height="101px"
   viewBox="0 0 101 101"
   version="1.1"
   id="svg34"
   sodipodi:docname="jwt_logo.svg"
   inkscape:export-filename="jwt_logo.png"
   inkscape:export-xdpi="96"
   inkscape:export-ydpi="96"
   inkscape:version="1.2.1 (9c6d41e, 2022-07-14)"
   xmlns:inkscape="http://www.inkscape.org/namespaces/inkscape"
   xmlns:sodipodi="http://sodipodi.sourceforge.net/DTD/sodipodi-0.dtd"
   xmlns="http://www.w3.org/2000/svg"
   xmlns:svg="http://www.w3.org/2000/svg"
   xmlns:sketch="http://www.bohemiancoding.com/sketch/ns">
  <sodipodi:namedview
     id="namedview36"
     pagecolor="#ffffff"
     bordercolor="#000000"
     borderopacity="0.25"
     inkscape:showpageshadow="2"
     inkscape:pageopacity="0.0"
     inkscape:pagecheckerboard="0"
     inkscape:deskcolor="#d1d1d1"
     showgrid="false"
     inkscape:zoom="2.3366337"
     inkscape:cx="40.442797"
     inkscape:cy="50.5"
     inkscape:window-width="1728"
     inkscape:window-height="966"
     inkscape:window-x="234"
     inkscape:window-y="128"
     inkscape:window-maximized="0"
     inkscape:current-layer="svg34" />
  <!-- Generator: Sketch 3.3.2 (12043) - http://www.bohemiancoding.com/sketch -->
  <title
     id="title2">Group</title>
  <desc
     id="desc4">Created with Sketch.</desc>
  <defs
     id="defs6" />
  <g
     id="Page-1"
     stroke="none"
     stroke-width="1"
     fill="none"
     fill-rule="evenodd"
     sketch:type="MSPage">
    <g
       id="jwt_logo"
       sketch:type="MSLayerGroup"
       transform="translate(-150.000000, -538.000000)">
      <g
         id="Group"
         transform="translate(0.000000, 413.000000)"
         sketch:type="MSShapeGroup">
        <g
           transform="translate(150.000000, 125.000000)"
           id="Shape">
          <g
             id="g28">
            <path
               d="M57.8,27.2 L57.7,0.3 L42.7,0.3 L42.8,27.2 L50.3,37.5 L57.8,27.2 Z"
               fill="#FFFFFF"
               id="path8" />
            <path
               d="M42.8,73.3 L42.8,100.3 L57.8,100.3 L57.8,73.3 L50.3,63 L42.8,73.3 Z"
               fill="#FFFFFF"
               id="path10" />
            <path
               d="M57.8,73.3 L73.6,95.1 L85.7,86.3 L69.9,64.5 L57.8,60.6 L57.8,73.3 Z"
               fill="#00F2E6"
               id="path12" />
            <path
               d="M42.8,27.2 L26.9,5.4 L14.8,14.2 L30.6,36 L42.8,39.9 L42.8,27.2 Z"
               fill="#00F2E6"
               id="path14" />
            <path
               d="M30.6,36 L5,27.7 L0.4,41.9 L26,50.3 L38.1,46.3 L30.6,36 Z"
               fill="#00B9F1"
               id="path16" />
            <path
               d="M62.4,54.2 L69.9,64.5 L95.5,72.8 L100.1,58.6 L74.5,50.3 L62.4,54.2 Z"
               fill="#00B9F1"
               id="path18" />
            <path
               d="M74.5,50.3 L100.1,41.9 L95.5,27.7 L69.9,36 L62.4,46.3 L74.5,50.3 Z"
               fill="#D63AFF"
               id="path20" />
            <path
               d="M26,50.3 L0.4,58.6 L5,72.8 L30.6,64.5 L38.1,54.2 L26,50.3 Z"
               fill="#D63AFF"
               id="path22" />
            <path
               d="M30.6,64.5 L14.8,86.3 L26.9,95.1 L42.8,73.3 L42.8,60.6 L30.6,64.5 Z"
               fill="#FB015B"
               id="path24" />
            <path
               d="M69.9,36 L85.7,14.2 L73.6,5.4 L57.8,27.2 L57.8,39.9 L69.9,36 Z"
               fill="#FB015B"
               id="path26" />
          </g>
        </g>
      </g>
    </g>
  </g>
</svg>
