<svg data-v-70b83f88="" version="1.0" xmlns="http://www.w3.org/2000/svg" xmlns:xlink="http://www.w3.org/1999/xlink" width="100%" height="100%" viewBox="0 0 340.000000 250.000000" preserveAspectRatio="xMidYMid meet" color-interpolation-filters="sRGB" style="margin: auto;"> <rect data-v-70b83f88="" x="0" y="0" width="100%" height="100%" fill="#feffff" fill-opacity="1" class="background"></rect> <rect data-v-70b83f88="" x="0" y="0" width="100%" height="100%" fill="url(#watermark)" fill-opacity="1" class="watermarklayer"></rect> <g data-v-70b83f88="" fill="#333" class="iconlettersvg-g iconlettersvg" transform="translate(150.08038139343262,100.00112108606845)"><g><g class="tp-name"><g transform="scale(1)"><g transform="translate(0, 0)"><g class="name-imagesvg"><g><rect fill="#333" fill-opacity="0" stroke-width="2" x="0" y="0" width="39.837478645638825" height="50" class="image-rect"></rect> <svg x="0" y="0" width="39.837478645638825" height="50" filtersec="colorsb4902768066" class="image-svg-svg primary" style="overflow: visible;"><svg xmlns="http://www.w3.org/2000/svg" viewBox="0 0 45.28 56.83"><title>资源 7</title><path fill="#213065" d="M15.29 41.94l13.181-13.18 1.096 1.096-13.18 13.18zM42.54 10.323l1.648-1.647 1.09 1.089-1.648 1.647zM15.29 37.58L28.472 24.4l1.09 1.089-13.181 13.18zM38.169 10.328l6.017-6.017 1.096 1.096-6.017 6.017zM15.29 33.2l13.181-13.18 1.09 1.089-13.181 13.18zM33.799 10.327l10.33-10.33 1.097 1.095-10.331 10.331zM15.29 28.83l13.181-13.18 1.09 1.089-13.181 13.18zM29.422 10.334L39.752.004 40.85 1.1 30.518 11.43zM15.29 24.46l13.181-13.18 1.096 1.096-13.18 13.18zM0 .55V10.9h15.84v12.73L38.92.55H0z"></path><path fill="#d22b27" d="M15.84 46.8v10.03h13.05V33.75L15.84 46.8z"></path></svg></svg> <!----></g></g></g></g></g></g> <!----></g><defs v-gra="od"></defs></svg>